<mxfile host="Electron" modified="2023-11-10T02:39:09.429Z" agent="Mozilla/5.0 (Windows NT 10.0; Win64; x64) AppleWebKit/537.36 (KHTML, like Gecko) draw.io/22.0.2 Chrome/114.0.5735.289 Electron/25.8.4 Safari/537.36" etag="q48Qa7Ov-GJBQI-PFuzF" version="22.0.2" type="device">
  <diagram id="C5RBs43oDa-KdzZeNtuy" name="Page-1">
    <mxGraphModel dx="872" dy="1116" grid="1" gridSize="10" guides="1" tooltips="1" connect="1" arrows="1" fold="1" page="1" pageScale="1" pageWidth="827" pageHeight="1169" math="0" shadow="0">
      <root>
        <mxCell id="WIyWlLk6GJQsqaUBKTNV-0" />
        <mxCell id="WIyWlLk6GJQsqaUBKTNV-1" parent="WIyWlLk6GJQsqaUBKTNV-0" />
        <mxCell id="7yzX-CPbtJeWtgaCTC3J-5" value="" style="edgeStyle=orthogonalEdgeStyle;rounded=0;orthogonalLoop=1;jettySize=auto;html=1;" edge="1" parent="WIyWlLk6GJQsqaUBKTNV-1" source="7yzX-CPbtJeWtgaCTC3J-0" target="7yzX-CPbtJeWtgaCTC3J-3">
          <mxGeometry relative="1" as="geometry" />
        </mxCell>
        <mxCell id="7yzX-CPbtJeWtgaCTC3J-0" value="Start" style="strokeWidth=2;html=1;shape=mxgraph.flowchart.start_1;whiteSpace=wrap;" vertex="1" parent="WIyWlLk6GJQsqaUBKTNV-1">
          <mxGeometry x="74" y="110" width="160" height="60" as="geometry" />
        </mxCell>
        <mxCell id="7yzX-CPbtJeWtgaCTC3J-7" value="" style="edgeStyle=orthogonalEdgeStyle;rounded=0;orthogonalLoop=1;jettySize=auto;html=1;" edge="1" parent="WIyWlLk6GJQsqaUBKTNV-1" source="7yzX-CPbtJeWtgaCTC3J-3" target="7yzX-CPbtJeWtgaCTC3J-6">
          <mxGeometry relative="1" as="geometry" />
        </mxCell>
        <mxCell id="7yzX-CPbtJeWtgaCTC3J-3" value="&lt;div&gt;const double a = 1000;&lt;/div&gt;&lt;div&gt;const double b = 0.0001;&lt;/div&gt;&lt;div&gt;const float a1 = 1000;&lt;/div&gt;&lt;div&gt;const float b1 =0.0001;&lt;/div&gt;" style="whiteSpace=wrap;html=1;strokeWidth=2;rounded=1;arcSize=12;" vertex="1" parent="WIyWlLk6GJQsqaUBKTNV-1">
          <mxGeometry x="64" y="200" width="180" height="80" as="geometry" />
        </mxCell>
        <mxCell id="7yzX-CPbtJeWtgaCTC3J-12" value="" style="edgeStyle=orthogonalEdgeStyle;rounded=0;orthogonalLoop=1;jettySize=auto;html=1;" edge="1" parent="WIyWlLk6GJQsqaUBKTNV-1" source="7yzX-CPbtJeWtgaCTC3J-6" target="7yzX-CPbtJeWtgaCTC3J-11">
          <mxGeometry relative="1" as="geometry" />
        </mxCell>
        <mxCell id="7yzX-CPbtJeWtgaCTC3J-6" value="foo( a, b)&amp;nbsp;" style="shape=process;whiteSpace=wrap;html=1;backgroundOutline=1;strokeWidth=2;rounded=1;arcSize=12;" vertex="1" parent="WIyWlLk6GJQsqaUBKTNV-1">
          <mxGeometry x="94" y="310" width="120" height="60" as="geometry" />
        </mxCell>
        <mxCell id="7yzX-CPbtJeWtgaCTC3J-36" value="" style="edgeStyle=orthogonalEdgeStyle;rounded=0;orthogonalLoop=1;jettySize=auto;html=1;" edge="1" parent="WIyWlLk6GJQsqaUBKTNV-1" source="7yzX-CPbtJeWtgaCTC3J-11" target="7yzX-CPbtJeWtgaCTC3J-35">
          <mxGeometry relative="1" as="geometry" />
        </mxCell>
        <mxCell id="7yzX-CPbtJeWtgaCTC3J-11" value="foo( a1, b1)&amp;nbsp;" style="shape=process;whiteSpace=wrap;html=1;backgroundOutline=1;strokeWidth=2;rounded=1;arcSize=12;" vertex="1" parent="WIyWlLk6GJQsqaUBKTNV-1">
          <mxGeometry x="94" y="410" width="120" height="60" as="geometry" />
        </mxCell>
        <mxCell id="7yzX-CPbtJeWtgaCTC3J-16" value="" style="edgeStyle=orthogonalEdgeStyle;rounded=0;orthogonalLoop=1;jettySize=auto;html=1;" edge="1" parent="WIyWlLk6GJQsqaUBKTNV-1" source="7yzX-CPbtJeWtgaCTC3J-17" target="7yzX-CPbtJeWtgaCTC3J-18">
          <mxGeometry relative="1" as="geometry" />
        </mxCell>
        <mxCell id="7yzX-CPbtJeWtgaCTC3J-17" value="foo(type a, type b)" style="strokeWidth=2;html=1;shape=mxgraph.flowchart.start_1;whiteSpace=wrap;" vertex="1" parent="WIyWlLk6GJQsqaUBKTNV-1">
          <mxGeometry x="446" y="50" width="160" height="60" as="geometry" />
        </mxCell>
        <mxCell id="7yzX-CPbtJeWtgaCTC3J-38" value="" style="edgeStyle=orthogonalEdgeStyle;rounded=0;orthogonalLoop=1;jettySize=auto;html=1;" edge="1" parent="WIyWlLk6GJQsqaUBKTNV-1" source="7yzX-CPbtJeWtgaCTC3J-18" target="7yzX-CPbtJeWtgaCTC3J-21">
          <mxGeometry relative="1" as="geometry" />
        </mxCell>
        <mxCell id="7yzX-CPbtJeWtgaCTC3J-18" value="&lt;div&gt;&amp;nbsp; &amp;nbsp; auto numerator = pow(a + b, 3) - pow(a, 3);&lt;/div&gt;&lt;div&gt;&amp;nbsp; &amp;nbsp; auto denominator = 3 * a * pow(b, 2) + pow(b, 3) + 3 * pow(a, 2) * b;&lt;/div&gt;" style="whiteSpace=wrap;html=1;strokeWidth=2;rounded=1;arcSize=12;" vertex="1" parent="WIyWlLk6GJQsqaUBKTNV-1">
          <mxGeometry x="328" y="145" width="396" height="80" as="geometry" />
        </mxCell>
        <mxCell id="7yzX-CPbtJeWtgaCTC3J-31" value="False" style="edgeStyle=orthogonalEdgeStyle;rounded=0;orthogonalLoop=1;jettySize=auto;html=1;entryX=0.5;entryY=0;entryDx=0;entryDy=0;" edge="1" parent="WIyWlLk6GJQsqaUBKTNV-1" source="7yzX-CPbtJeWtgaCTC3J-21" target="7yzX-CPbtJeWtgaCTC3J-25">
          <mxGeometry relative="1" as="geometry">
            <Array as="points">
              <mxPoint x="674" y="325" />
            </Array>
          </mxGeometry>
        </mxCell>
        <mxCell id="7yzX-CPbtJeWtgaCTC3J-32" value="True" style="edgeStyle=orthogonalEdgeStyle;rounded=0;orthogonalLoop=1;jettySize=auto;html=1;entryX=0.5;entryY=0;entryDx=0;entryDy=0;" edge="1" parent="WIyWlLk6GJQsqaUBKTNV-1" source="7yzX-CPbtJeWtgaCTC3J-21" target="7yzX-CPbtJeWtgaCTC3J-28">
          <mxGeometry relative="1" as="geometry">
            <Array as="points">
              <mxPoint x="389" y="325" />
            </Array>
          </mxGeometry>
        </mxCell>
        <mxCell id="7yzX-CPbtJeWtgaCTC3J-21" value="if (denominator != 0)" style="strokeWidth=2;html=1;shape=mxgraph.flowchart.decision;whiteSpace=wrap;" vertex="1" parent="WIyWlLk6GJQsqaUBKTNV-1">
          <mxGeometry x="457" y="270" width="138" height="110" as="geometry" />
        </mxCell>
        <mxCell id="7yzX-CPbtJeWtgaCTC3J-25" value="Output:&lt;br&gt;&quot;Error: Division by zero&quot;" style="shape=parallelogram;html=1;strokeWidth=2;perimeter=parallelogramPerimeter;whiteSpace=wrap;rounded=1;arcSize=12;size=0.23;" vertex="1" parent="WIyWlLk6GJQsqaUBKTNV-1">
          <mxGeometry x="584" y="390" width="180" height="100" as="geometry" />
        </mxCell>
        <mxCell id="7yzX-CPbtJeWtgaCTC3J-34" value="" style="edgeStyle=orthogonalEdgeStyle;rounded=0;orthogonalLoop=1;jettySize=auto;html=1;" edge="1" parent="WIyWlLk6GJQsqaUBKTNV-1" source="7yzX-CPbtJeWtgaCTC3J-28" target="7yzX-CPbtJeWtgaCTC3J-33">
          <mxGeometry relative="1" as="geometry" />
        </mxCell>
        <mxCell id="7yzX-CPbtJeWtgaCTC3J-28" value="auto result = numerator / denominator" style="rounded=1;whiteSpace=wrap;html=1;absoluteArcSize=1;arcSize=14;strokeWidth=2;" vertex="1" parent="WIyWlLk6GJQsqaUBKTNV-1">
          <mxGeometry x="284" y="400" width="210" height="40" as="geometry" />
        </mxCell>
        <mxCell id="7yzX-CPbtJeWtgaCTC3J-33" value="Output:&lt;br&gt;&quot;Result: &quot; result" style="shape=parallelogram;html=1;strokeWidth=2;perimeter=parallelogramPerimeter;whiteSpace=wrap;rounded=1;arcSize=12;size=0.23;" vertex="1" parent="WIyWlLk6GJQsqaUBKTNV-1">
          <mxGeometry x="307.75" y="480" width="162.5" height="70" as="geometry" />
        </mxCell>
        <mxCell id="7yzX-CPbtJeWtgaCTC3J-35" value="End" style="strokeWidth=2;html=1;shape=mxgraph.flowchart.terminator;whiteSpace=wrap;" vertex="1" parent="WIyWlLk6GJQsqaUBKTNV-1">
          <mxGeometry x="104" y="500" width="100" height="60" as="geometry" />
        </mxCell>
        <mxCell id="7yzX-CPbtJeWtgaCTC3J-37" value="End" style="strokeWidth=2;html=1;shape=mxgraph.flowchart.terminator;whiteSpace=wrap;" vertex="1" parent="WIyWlLk6GJQsqaUBKTNV-1">
          <mxGeometry x="476" y="619" width="100" height="60" as="geometry" />
        </mxCell>
        <mxCell id="7yzX-CPbtJeWtgaCTC3J-39" style="edgeStyle=orthogonalEdgeStyle;rounded=0;orthogonalLoop=1;jettySize=auto;html=1;entryX=0.5;entryY=0;entryDx=0;entryDy=0;entryPerimeter=0;" edge="1" parent="WIyWlLk6GJQsqaUBKTNV-1" source="7yzX-CPbtJeWtgaCTC3J-33" target="7yzX-CPbtJeWtgaCTC3J-37">
          <mxGeometry relative="1" as="geometry">
            <Array as="points">
              <mxPoint x="389" y="570" />
              <mxPoint x="526" y="570" />
            </Array>
          </mxGeometry>
        </mxCell>
        <mxCell id="7yzX-CPbtJeWtgaCTC3J-40" style="edgeStyle=orthogonalEdgeStyle;rounded=0;orthogonalLoop=1;jettySize=auto;html=1;entryX=0.5;entryY=0;entryDx=0;entryDy=0;entryPerimeter=0;" edge="1" parent="WIyWlLk6GJQsqaUBKTNV-1" source="7yzX-CPbtJeWtgaCTC3J-25" target="7yzX-CPbtJeWtgaCTC3J-37">
          <mxGeometry relative="1" as="geometry">
            <Array as="points">
              <mxPoint x="674" y="570" />
              <mxPoint x="526" y="570" />
            </Array>
          </mxGeometry>
        </mxCell>
      </root>
    </mxGraphModel>
  </diagram>
</mxfile>
